<svg viewBox="2 1 30 32" fill="none" xmlns="http://www.w3.org/2000/svg">
  <path d="M28.3406 8.63346H8.75222C7.79521 8.63346 6.8774 8.25329 6.2007 7.57658C5.52399 6.89988 5.14383 5.98207 5.14383 5.02506C5.14383 4.06806 5.52399 3.15025 6.2007 2.47354C6.8774 1.79684 7.79521 1.41667 8.75222 1.41667H28.3406C29.2976 1.41667 30.2155 1.79684 30.8922 2.47354C31.5689 3.15025 31.949 4.06806 31.949 5.02506C31.949 5.98207 31.5689 6.89988 30.8922 7.57658C30.2155 8.25329 29.2976 8.63346 28.3406 8.63346Z" fill="#0277BD"/>
  <path d="M28.3406 32.5835H8.75222C7.79521 32.5835 6.8774 32.2033 6.2007 31.5266C5.52399 30.8499 5.14383 29.9321 5.14383 28.9751C5.14383 28.0181 5.52399 27.1003 6.2007 26.4236C6.8774 25.7469 7.79521 25.3667 8.75222 25.3667H28.3406C29.2976 25.3667 30.2155 25.7469 30.8922 26.4236C31.5689 27.1003 31.949 28.0181 31.949 28.9751C31.949 29.9321 31.5689 30.8499 30.8922 31.5266C30.2155 32.2033 29.2976 32.5835 28.3406 32.5835Z" fill="#03DAC5"/>
  <path d="M17 20.6077H5.65937C4.70236 20.6077 3.78455 20.2276 3.10785 19.5509C2.43114 18.8742 2.05098 17.9564 2.05098 16.9993C2.05098 16.0423 2.43114 15.1245 3.10785 14.4478C3.78455 13.7711 4.70236 13.391 5.65937 13.391H17C17.957 13.391 18.8748 13.7711 19.5516 14.4478C20.2283 15.1245 20.6084 16.0423 20.6084 16.9993C20.6084 17.9564 20.2283 18.8742 19.5516 19.5509C18.8748 20.2276 17.957 20.6077 17 20.6077Z" fill="#00C853"/>
</svg>
